<?xml version="1.0" encoding="utf-8"?>
<!-- Generator: Adobe Illustrator 19.0.0, SVG Export Plug-In . SVG Version: 6.00 Build 0)  -->
<svg version="1.1" id="图层_1" xmlns="http://www.w3.org/2000/svg" xmlns:xlink="http://www.w3.org/1999/xlink" x="0px" y="0px"
	 viewBox="12 10 100 100" style="enable-background:new 12 10 100 100;" xml:space="preserve">
<style type="text/css">
	.st0{fill:#6C66FB;}
</style>
<path id="XMLID_101_" class="st0" d="M102,55.2c0-0.9-0.8-1.7-1.7-1.7c-0.1,0-0.3,0-0.4,0.1L77.7,23.1l-37.8,4.3
	c-0.3-0.6-0.9-0.9-1.5-0.9c-0.9,0-1.7,0.8-1.7,1.7c0,0.5,0.2,0.9,0.5,1.2L22,64.4l22.7,30.9c0.1,0.6,0.5,1.1,1,1.4v0.1h0.1
	c0.2,0.1,0.4,0.1,0.6,0.1c0.3,0,0.7-0.1,0.9-0.3l38.2-4.3l15.4-35.5C101.5,56.6,102,55.9,102,55.2z M47.9,94.4
	c-0.1-0.2-0.2-0.3-0.3-0.4l6-13.6l10,3.8L47.9,94.4z M38.8,29.8L38.8,29.8l7.1,9.5l-7.5,7.8L38.8,29.8z M85.3,53.2l-1.9-7.7
	l15.1,9.2L85.3,53.2z M84,52.8l-12.4-4.7l-1.8-10.8c0,0,0.1,0,0.1-0.1L82,44.6L84,52.8z M74.9,75.9l-11.1-4.2l9.5-7.8l1.9,11.7
	C75.2,75.7,75,75.8,74.9,75.9z M62.5,71.3l-10.7-4.1l-2.3-14.1l10-8.2l11.4,4.3l2.2,13.4L62.5,71.3z M61.8,71.8l-8.2,6.7L52,68.1
	L61.8,71.8z M39.2,61.6l9.3-7.7l2.1,12.8l-11.4-4.3c0-0.1,0.1-0.2,0.1-0.3C39.2,61.9,39.2,61.8,39.2,61.6z M49.3,52.2l-2-11.9
	l11.3,4.3L49.3,52.2z M68.7,37.4c0.1,0.1,0.2,0.1,0.4,0.1l1.7,10.3L60.7,44L68.7,37.4z M71.8,49.5L83.7,54l-9.8,8.1L71.8,49.5z
	 M70.3,36.6c0-0.1,0.1-0.3,0.1-0.4c0-0.7-0.6-1.3-1.3-1.3c-0.5,0-0.9,0.3-1.1,0.7l-8.4-2.2l17.3-8.8l4.7,18.8L70.3,36.6z M67.9,36.4
	c0,0.1,0.1,0.3,0.1,0.4l-8.3,6.8l-11.6-4.4l10.5-5.3L67.9,36.4z M46.8,38.6l-7-9.5c0,0,0-0.1,0.1-0.1l17,4.5L46.8,38.6z M46.2,40.6
	l2,12.4l-9.7,8c-0.1-0.1-0.3-0.1-0.5-0.2l0.2-12L46.2,40.6z M37.2,61c-0.4,0.2-0.7,0.6-0.7,1.1c0,0.6,0.4,1,0.9,1.2l2.2,8.9l-16-8
	l13.9-14.5L37.2,61z M38.3,63.3c0.1,0,0.3-0.1,0.4-0.2l12,4.5l1.8,11l-11.9-5.9L38.3,63.3z M52.4,79.9l-6,13.5c-0.1,0-0.1,0-0.2,0
	c-0.2,0-0.4,0-0.6,0.1l-4.8-19.4L52.4,79.9z M54.4,79.5l8.7-7.1l11.5,4.3c0,0.1,0,0.1,0,0.2c0,0.1,0,0.1,0,0.2l-9.8,6.4L54.4,79.5z
	 M74.9,77.8c0.2,0.2,0.5,0.4,0.9,0.4c0.7,0,1.3-0.6,1.3-1.3c0-0.2-0.1-0.4-0.1-0.6l7.3-6.2L84.5,91l-18.7-7.1L74.9,77.8z M76.4,75.7
	c-0.1-0.1-0.2-0.1-0.3-0.1l-2-12.2L84.3,55l0.1,14L76.4,75.7z M85.5,54.4L98.8,56c0.1,0.2,0.2,0.3,0.3,0.4L85.5,68L85.5,54.4z
	 M83.2,44.4l-4.4-17.8l20,27.3L83.2,44.4z M57.9,32.9L41,28.5l33.1-3.7L57.9,32.9z M37.5,47.9l-13,13.6l13.4-30.8L37.5,47.9z
	 M40,73.7l4.9,20.1L24.5,66L40,73.7z M48,95.3l16.5-10.7l18,6.9L48,95.3L48,95.3z M85.5,69l13.8-11.7L85.7,88.9L85.5,69z"/>
</svg>
