<?xml version="1.0" encoding="utf-8"?>
<!-- Generator: Adobe Illustrator 19.0.0, SVG Export Plug-In . SVG Version: 6.00 Build 0)  -->
<svg version="1.1" id="图层_1" xmlns="http://www.w3.org/2000/svg" xmlns:xlink="http://www.w3.org/1999/xlink" x="0px" y="0px"
	 viewBox="135 -25 345 80" style="enable-background:new 135 -25 345 80;" xml:space="preserve">
<style type="text/css">
	.st0{fill:#FFFFFF;}
</style>
<path id="XMLID_101_" class="st0" d="M224.1,10.1c0-0.9-0.8-1.7-1.7-1.7c-0.1,0-0.3,0-0.4,0.1l-22.3-30.4l-37.8,4.2
	c-0.3-0.6-0.9-0.9-1.5-0.9c-0.9,0-1.7,0.8-1.7,1.7c0,0.5,0.2,0.9,0.5,1.2l-15.2,35l22.7,31c0.1,0.6,0.5,1.1,1,1.4v0.1h0.1
	c0.2,0.1,0.4,0.1,0.6,0.1c0.3,0,0.7-0.1,0.9-0.3l38.2-4.3l15.4-35.5C223.6,11.5,224.1,10.8,224.1,10.1z M169.9,49.3
	c-0.1-0.2-0.2-0.3-0.3-0.4l6-13.6l10,3.8L169.9,49.3z M160.7-15.2h0.1l7,9.5l-7.5,7.8L160.7-15.2z M207.4,8.1l-1.9-7.7l15.1,9.2
	L207.4,8.1z M206,7.7L193.6,3l-1.8-10.8c0,0,0.1,0,0.1-0.1L204-0.5L206,7.7z M197,30.8l-11.1-4.2l9.5-7.8l1.9,11.7
	C197.2,30.7,197.1,30.7,197,30.8z M184.6,26.2l-10.7-4.1L171.6,8l10-8.2L193,4.1l2.2,13.4L184.6,26.2z M183.9,26.8l-8.2,6.7
	L174,23.1L183.9,26.8z M161.1,16.5l9.3-7.7l2.1,12.8l-11.3-4.3c0-0.1,0.1-0.2,0.1-0.3C161.2,16.8,161.2,16.7,161.1,16.5z M171.4,7.1
	l-2-11.9l11.3,4.2L171.4,7.1z M190.7-7.7c0.1,0.1,0.2,0.1,0.4,0.1l1.6,10.3l-10.1-3.8L190.7-7.7z M193.8,4.4l11.9,4.5l-9.8,8.1
	L193.8,4.4z M192.4-8.5c0-0.1,0.1-0.3,0.1-0.4c0-0.7-0.6-1.3-1.3-1.3c-0.5,0-0.9,0.3-1.1,0.7l-8.4-2.2l17.3-8.8l4.7,18.9L192.4-8.5z
	 M189.9-8.7c0,0.1,0.1,0.3,0.1,0.4l-8.3,6.8l-11.6-4.4l10.5-5.3L189.9-8.7z M168.8-6.5l-7-9.5c0,0,0-0.1,0.1-0.1l17,4.5L168.8-6.5z
	 M168.3-4.5l2,12.4l-9.7,8c-0.1-0.1-0.3-0.1-0.5-0.2l0.2-12L168.3-4.5z M159.3,15.9c-0.4,0.2-0.7,0.6-0.7,1.1c0,0.6,0.4,1,0.9,1.2
	l2.2,8.9l-16-8l13.9-14.5L159.3,15.9z M160.3,18.2c0.1,0,0.3-0.1,0.4-0.2l12,4.5l1.8,11l-11.9-5.9L160.3,18.2z M174.5,34.9l-6,13.5
	c-0.1,0-0.1,0-0.2,0c-0.2,0-0.4,0-0.6,0.1l-4.8-19.4L174.5,34.9z M176.5,34.4l8.7-7.1l11.5,4.3c0,0.1,0,0.1,0,0.2c0,0.1,0,0.1,0,0.2
	l-9.9,6.3L176.5,34.4z M197,32.7c0.2,0.2,0.5,0.4,0.9,0.4c0.7,0,1.3-0.6,1.3-1.3c0-0.2-0.1-0.4-0.1-0.6l7.3-6.2l0.1,20.9l-18.7-7.1
	L197,32.7z M198.5,30.6c-0.1-0.1-0.2-0.1-0.3-0.1l-2-12.2l10.2-8.4l0.1,14L198.5,30.6z M207.5,9.3l13.4,1.6c0.1,0.2,0.2,0.3,0.3,0.4
	l-13.6,11.6L207.5,9.3z M205.2-0.7l-4.5-17.8l20,27.3L205.2-0.7z M180-12.1l-16.9-4.5l33.1-3.7L180-12.1z M159.6,2.9l-13,13.6
	L160-14.3L159.6,2.9z M162.1,28.6l4.9,20.1l-20.4-27.8L162.1,28.6z M170.1,50.2l16.4-10.7l18,6.9L170.1,50.2L170.1,50.2z
	 M207.6,23.9l13.8-11.7l-13.8,31.6V23.9z"/>
<g id="XMLID_54_">
	<path id="XMLID_55_" class="st0" d="M696.6-140.5h-7.5v-2h7.5V-140.5z M696.5-146h-7.2v-2.2l3.4-6.1h-3.4v-2.3l3.8-7.5l1.8,0.9
		l-3.4,6.8h2.3l1.1-1.9l1.8,1l-5.2,9.2h5V-146L696.5-146z M701.8-141.5h2.6v-5.5l-5.4,5.2l-1.4-1.5l6.8-6.6v-3.1h-7.5v-2h13v-2.5
		h-11.8v-2h11.8v-2.4h-11.8v-2H712v8.9h1.8v2h-7.3v1.7l2.2,2.6l3.3-2.9l1.4,1.5l-3.3,2.9l3.6,4.2l-1.5,1.3l-5.6-6.5v8.6h-4.7v-1.9
		H701.8z M700.7-147.8l-2.1-2.1l1.4-1.4l2.1,2.1L700.7-147.8z"/>
	<path id="XMLID_60_" class="st0" d="M717.5-157.9l3.4-4v-2.5h2v1.9h16.8v3.1l-1.8,2.5h2.1v9.8h-18.3v5.5h16.8l1.5-3.5l1.9,0.8
		l-2,4.8h-20.3V-157h15.7l2.3-3.1v-0.4h-15.3l-3.3,3.9L717.5-157.9z M737.9-149.1v-5.8h-16.3v5.8H737.9z M730.6-150.2l-3.1-3.1
		l1.4-1.4l3.1,3.1L730.6-150.2z"/>
	<path id="XMLID_64_" class="st0" d="M745.4-141.5l11.5-3.4v-3.5h2v3.5l11.5,3.4l-0.6,1.9l-11.9-3.5l-12,3.5L745.4-141.5z
		 M749.1-159l-2.7-2.7l1.4-1.4l2.7,2.7L749.1-159z M746.4-154.4l2.7-2.7l1.4,1.4l-2.7,2.7L746.4-154.4z M765.8-144.5v-5.2H750v5.2
		h-2v-7.2h19.8v7.2H765.8z M755.8-164.4v1.4H769v5.2h-2v-3.1h-11.6l-2.4,3.5l-1.7-1.2l2.6-3.7v-2.1
		C753.9-164.4,755.8-164.4,755.8-164.4z M768.4-151.9l-7.8-4l-7.8,4l-0.9-1.8l7.7-3.9v-2.2h2v2.2l7.7,3.9L768.4-151.9z"/>
	<path id="XMLID_71_" class="st0" d="M776.6-159.6l-2.7-2.7l1.4-1.4l2.7,2.7L776.6-159.6z M776.6-149.7l-2.7-2.7l1.4-1.4l2.7,2.7
		L776.6-149.7z M778-142.7l-2.7,2.7l-1.4-1.4l2.7-2.7L778-142.7z M798.4-161.8h-15.6v19.1l-2.7,3.4l-1.6-1.3l2.2-2.9v-20.3h17.6v2
		H798.4z M784.4-143.2l2.3-2.4l1.5,1.4l-2.3,2.4L784.4-143.2z M797-158.3v10.7h-4.9v8.1h-4.3v-2h2.2v-6h-4.8v-10.8h3.2v-2.1h2v2.1
		H797z M787.3-156.2v6.6h7.7v-6.6H787.3z M791.6-150.9l-2.3-2.4l1.5-1.4l2.3,2.4L791.6-150.9z M796.4-141.8l-2.3-2.4l1.5-1.4
		l2.3,2.4L796.4-141.8z"/>
	<path id="XMLID_81_" class="st0" d="M827.1-159.2h-25.4v-2h11.6v-3.2h2v3.2H827L827.1-159.2L827.1-159.2z M808.5-157.6v3l5.8,4.3
		l5.9-4.3v-3h2v3l3.3,3.1l-1.4,1.5l-3-2.8L816-149l10.7,7.9l-1.2,1.6l-11.2-8.3l-11.2,8.3l-1.2-1.6l10.8-8l-5.1-3.8l-3,2.8l-1.4-1.5
		l3.3-3.1v-3L808.5-157.6L808.5-157.6z"/>
	<path id="XMLID_84_" class="st0" d="M835.6-152.5v1.7h19.1v11.3h-5.8v-2h3.7v-7.2h-2.3l-8.1,9.4l-1.5-1.3l7-8.1H842l-8.1,9.4
		l-1.5-1.3l7-8.1h-4.3l-3.1,2.9l-1.4-1.5l3.1-2.9v-2.3C833.7-152.5,835.6-152.5,835.6-152.5z M833.8-153.3v-10.5h19.3v10.6h-19.3
		V-153.3z M851.1-155.3v-6.5h-15.3v6.5H851.1z M842.9-160.6l2.7,2.7l-1.4,1.4l-2.7-2.7L842.9-160.6z"/>
	<path id="XMLID_89_" class="st0" d="M870.9-162.3l-2.5,1.8h-6.1v4h7.2v9h-7.2v4l-2.1,4.3l-1.8-0.9l1.9-3.8v-18.6h7.4l2-1.4
		L870.9-162.3z M867.4-149.5v-4.9h-5.1v4.9H867.4z M878.6-139v-14.7h-4.4v10.2l-2.1,4.3l-1.8-0.9l1.9-3.8v-18.6h7.8l2-1.4l1.2,1.7
		l-2.5,1.8h-6.4v4.8h9.2v2h-2.7v14.6H878.6z"/>
</g>
<g>
	<path class="st0" d="M249.7,10.9h-8.1V8.7h8.1V10.9z M249.6,5h-7.7V2.6l3.6-6.5h-3.6v-2.5l4.1-8.1l2,1l-3.7,7.4h2.5l1.2-2.1
		l1.9,1.1l-5.6,10h5.4V5z M255.3,9.8h2.8V3.9l-5.8,5.6l-1.5-1.6l7.3-7.1v-3.3h-8.1v-2.2h14v-2.6h-12.8v-2.2H264v-2.6h-12.8v-2.2h15
		v9.6h1.9v2.2h-7.9v1.8l2.4,2.8l3.5-3.1l1.5,1.6l-3.5,3.1l3.8,4.5l-1.6,1.4l-6-7V12h-5V9.8z M254.1,3.1l-2.3-2.3l1.6-1.6l2.3,2.3
		L254.1,3.1z"/>
	<path class="st0" d="M272.2-7.9l3.7-4.3v-2.7h2.2v2h18.1v3.4l-2,2.6h2.3V3.8h-19.7v6h18.2l1.6-3.8l2,0.8l-2.1,5.2h-21.8V-6.9h16.9
		l2.5-3.4v-0.5h-16.5l-3.5,4.2L272.2-7.9z M294.2,1.6v-6.3h-17.5v6.3H294.2z M286.4,0.5l-3.3-3.3l1.5-1.5l3.3,3.3L286.4,0.5z"/>
	<path class="st0" d="M310.8,12h-8.5V9.8h8.5V12z M310.8,5.9h-8.4V3.4l4.3-6.8h-4.3v-2.5l4.8-8.3l1.9,1.1l-4.4,7.6h3.4l1.4-2.2
		l1.9,1.2l-6.6,10.3h6V5.9z M312.3-13.6h14.8v3.7l-4.7,3l6.4,4.1L327.7-1l-7.3-4.6L313.3-1l-1.2-1.9l12.9-8.3v-0.3h-12.6V-13.6z
		 M328.9,3h-7.1v6.8h7.4V12h-17V9.8h7.4V3h-7.1V0.8h16.4V3z"/>
	<path class="st0" d="M335.9-9.6l-2.9-3l1.6-1.5l2.9,2.9L335.9-9.6z M335.9,1L333-1.9l1.6-1.6l2.9,3L335.9,1z M337.4,8.6l-2.9,2.9
		L333,9.9l2.9-2.9L337.4,8.6z M339.3-0.6l7.2-3.2l-4.1-1.8v-3.9H339v-2.2h9.2v-3h2.2v3h9.2v2.2h-3.4v3.9l-4.2,1.9
		c2.4,1.1,4.8,2.2,7.3,3.2l-0.9,2l-9.1-4.1l-9.1,4.1L339.3-0.6z M345.3,1.4v7.4l-3.6,3.3l-1.5-1.6l2.9-2.6V1.4H345.3z M353.9-7.1
		v-2.4h-9.3v2.4c1.5,0.7,3.1,1.4,4.6,2.1L353.9-7.1z M355.6,1.4v11.1h-2.2V1.4H355.6z"/>
</g>
<g>
	<path class="st0" d="M260.4,40.9h-19.6v-1.6h4.1v-9.2h1.6v9.2h4.2V27.7h1.6v11.6h8.3V40.9z M259.4,30l-8.7-5.6l-8.8,6.2l-0.9-1.3
		l8.9-6.3v-1.4h1.6v1.3l8.8,5.7L259.4,30z M254.3,33.2l2.1-2.1l1.1,1.1l-2.1,2.1L254.3,33.2z"/>
	<path class="st0" d="M282.4,40.9h-19.7v-1.6h6.4V21.6h1.6v17.7h3.7V21.6h1.6v17.7h6.4V40.9z M264.9,25.1l2.3,11l-1.5,0.3l-2.3-11
		L264.9,25.1z M281.7,25.4l-2.3,11l-1.5-0.3l2.3-11L281.7,25.4z"/>
	<path class="st0" d="M289.9,21.7v3.4h5.9v6.8l-8.4,9.2l-1.2-1.1l5.1-5.6l-3.7-2.6l0.9-1.3l3.9,2.7l1.9-2.1v-4.6h-4.8l-3.2,3.4
		l-1.1-1.1l3.2-3.4v-3.9H289.9z M298.1,41.3V21.7h1.6v19.6H298.1z M302.7,32.2l-2.1-2.1l1.1-1.1l2.1,2.1L302.7,32.2z"/>
	<path class="st0" d="M318.3,31.3H307v-1.6h11.3V31.3z M318,25.1h-10.6v-1.6h4.5v-1.9h1.6v1.9h4.5V25.1z M317.3,33.6v7.3H308v-7.3
		H317.3z M310.1,28.9l-1.8-1.8l1.1-1.1l1.8,1.8L310.1,28.9z M309.5,35.2v4.2h6.2v-4.2H309.5z M314.1,27.8l1.8-1.8l1.1,1.1l-1.8,1.8
		L314.1,27.8z M322.2,38.8l2.1-1.7v-5.3h-2v-1.4l2-4.5v-1.6h-3.5v17.1h-1.6V22.7h6.6v3.5l-1.8,4h1.8v7.6l-2.6,2.2L322.2,38.8z"/>
	<path class="st0" d="M347.9,26.7h-6.1l1.5,6l2.6-3.8l1.3,0.9l-3.4,5l1.1,4.5h2.8v1.6h-4.1l-1.1-4.3l-2.8,4.2l-1.3-0.9l3.6-5.4
		l-1.9-7.8H332v2.9h5.8v8.6h-4.1v-1.6h2.5v-5.5H332v7l-1.8,3l-1.4-0.8l1.6-2.6V25.1h9.4l-0.7-3.1l1.5-0.4l0.8,3.4h6.5V26.7z
		 M345.2,25l-1.8-1.9l1.1-1.1l1.8,1.9L345.2,25z"/>
	<path class="st0" d="M359.5,41.3v-3.2h-5.2v-1.6h5.2v-9.8L352.1,37l-1.3-0.9l6.9-9.6h-7.2v-1.6h9.1v-3.3h1.6v3.3h9.1v1.6h-7.2
		l6.9,9.6l-1.3,0.9l-7.4-10.3v9.8h5.2v1.6h-5.2v3.2H359.5z"/>
	<path class="st0" d="M392,25.6h-19.7v-1.6h9v-2.5h1.6v2.5h9.1V25.6z M377.6,26.9v2.3l4.5,3.4l4.5-3.4v-2.3h1.6v2.3l2.6,2.4
		l-1.1,1.1l-2.3-2.1l-3.9,2.9l8.3,6.1l-0.9,1.3l-8.7-6.4l-8.7,6.4l-0.9-1.3l8.3-6.1l-3.9-2.9l-2.3,2.1l-1.1-1.1l2.6-2.4v-2.3H377.6z
		"/>
	<path class="st0" d="M398.7,30.8v1.3h14.8v8.8H409v-1.6h2.9v-5.6h-1.8l-6.3,7.3l-1.2-1l5.4-6.2h-4.4l-6.3,7.3l-1.2-1l5.4-6.2h-3.3
		l-2.4,2.2l-1.1-1.1l2.4-2.2v-1.8H398.7z M397.3,30.3v-8.2h15v8.2H397.3z M410.7,28.7v-5h-11.8v5H410.7z M404.3,24.5l2.1,2.1
		l-1.1,1.1l-2.1-2.1L404.3,24.5z"/>
	<path class="st0" d="M416.2,32.7h9.1v-9.1h-8.5v-1.6h18.6v1.6h-8.5v9.1h9.1v1.6h-9.1v7.1h-1.6v-7.1h-9.1V32.7z M419.4,25.2l3,4.9
		l-1.3,0.8l-3-4.9L419.4,25.2z M434,26l-3,4.9l-1.3-0.8l3-4.9L434,26z"/>
	<path class="st0" d="M446.8,23.1l-5.9,5v1.3h14.1v-1.2l-2.1-2.1l1.1-1.1l2.6,2.5V31h-17.2v-3.6l6.5-5.5L446.8,23.1z M456.7,33v7.9
		h-17.4V33H456.7z M440.9,34.6v4.7h14.2v-4.7H440.9z"/>
</g>
</svg>
