<?xml version="1.0" encoding="utf-8"?>
<!-- Generator: Adobe Illustrator 19.0.0, SVG Export Plug-In . SVG Version: 6.00 Build 0)  -->
<svg version="1.1" id="图层_1" xmlns="http://www.w3.org/2000/svg" xmlns:xlink="http://www.w3.org/1999/xlink" x="0px" y="0px"
	 viewBox="95 -45 220 153" style="enable-background:new 95 -45 220 153;" xml:space="preserve">
<style type="text/css">
	.st0{fill:#6C66FB;}
</style>
<path id="XMLID_101_" class="st0" d="M246.7-9.4c0-0.9-0.8-1.7-1.7-1.7c-0.1,0-0.3,0-0.4,0.1l-22.3-30.5l-37.8,4.3
	c-0.3-0.6-0.9-0.9-1.5-0.9c-0.9,0-1.7,0.8-1.7,1.7c0,0.5,0.2,0.9,0.5,1.2l-15.2,35l22.7,30.9c0.1,0.6,0.5,1.1,1,1.4v0.1h0.1
	c0.2,0.1,0.4,0.1,0.6,0.1c0.3,0,0.7-0.1,0.9-0.3l38.2-4.3l15.4-35.5C246.2-8,246.7-8.7,246.7-9.4z M192.6,29.8
	c-0.1-0.2-0.2-0.3-0.3-0.4l6-13.6l10,3.8L192.6,29.8z M183.4-34.8h0.1l7,9.5l-7.5,7.8L183.4-34.8z M230-11.4l-1.9-7.7l15.1,9.2
	L230-11.4z M228.7-11.8l-12.4-4.7l-1.8-10.8c0,0,0.1,0,0.1-0.1l12.1,7.4L228.7-11.8z M219.6,11.3l-11.1-4.2l9.5-7.8l1.9,11.7
	C219.8,11.1,219.7,11.2,219.6,11.3z M207.2,6.7l-10.7-4.1l-2.3-14.1l10-8.2l11.4,4.3L217.8-2L207.2,6.7z M206.5,7.2l-8.2,6.7
	l-1.7-10.4L206.5,7.2z M183.8-3l9.3-7.7l2.1,12.8l-11.4-4.3c0-0.1,0.1-0.2,0.1-0.3C183.9-2.7,183.8-2.8,183.8-3z M194-12.4l-2-11.9
	l11.3,4.3L194-12.4z M213.3-27.2c0.1,0.1,0.2,0.1,0.4,0.1l1.7,10.3l-10.1-3.8L213.3-27.2z M216.5-15.1l11.9,4.5l-9.8,8.1L216.5-15.1
	z M215-28c0-0.1,0.1-0.3,0.1-0.4c0-0.7-0.6-1.3-1.3-1.3c-0.5,0-0.9,0.3-1.1,0.7l-8.4-2.2l17.3-8.8l4.7,18.8L215-28z M212.6-28.2
	c0,0.1,0.1,0.3,0.1,0.4l-8.3,6.8l-11.6-4.4l10.5-5.3L212.6-28.2z M191.5-26l-7-9.5c0,0,0-0.1,0.1-0.1l17,4.5L191.5-26z M190.9-24
	l2,12.4l-9.7,8c-0.1-0.1-0.3-0.1-0.5-0.2l0.2-12L190.9-24z M181.9-3.6c-0.4,0.2-0.7,0.6-0.7,1.1c0,0.6,0.4,1,0.9,1.2l2.2,8.9l-16-8
	l13.9-14.5L181.9-3.6z M183-1.3c0.1,0,0.3-0.1,0.4-0.2l12,4.5l1.8,11l-11.9-5.9L183-1.3z M197.1,15.3l-6,13.5c-0.1,0-0.1,0-0.2,0
	c-0.2,0-0.4,0-0.6,0.1l-4.8-19.4L197.1,15.3z M199.1,14.9l8.7-7.1l11.5,4.3c0,0.1,0,0.1,0,0.2c0,0.1,0,0.1,0,0.2l-9.8,6.4
	L199.1,14.9z M219.6,13.2c0.2,0.2,0.5,0.4,0.9,0.4c0.7,0,1.3-0.6,1.3-1.3c0-0.2-0.1-0.4-0.1-0.6l7.3-6.2l0.1,20.9l-18.7-7.1
	L219.6,13.2z M221.1,11.1c-0.1-0.1-0.2-0.1-0.3-0.1l-2-12.2L229-9.6l0.1,14L221.1,11.1z M230.1-10.2l13.4,1.6
	c0.1,0.2,0.2,0.3,0.3,0.4L230.2,3.4L230.1-10.2z M227.8-20.2L223.4-38l20,27.3L227.8-20.2z M202.6-31.7l-16.9-4.4l33.1-3.7
	L202.6-31.7z M182.2-16.7l-13,13.6l13.4-30.8L182.2-16.7z M184.7,9.1l4.9,20.1L169.2,1.4L184.7,9.1z M192.7,30.7L209.2,20l18,6.9
	L192.7,30.7L192.7,30.7z M230.2,4.4L244-7.3l-13.7,31.6L230.2,4.4z"/>
<g>
	<path class="st0" d="M161.6,73.8h-7.2v-1.9h7.2V73.8z M161.5,68.5h-6.9v-2.1l3.2-5.8h-3.2v-2.2l3.6-7.2l1.8,0.9l-3.3,6.5h2.2l1-1.8
		l1.7,0.9l-4.9,8.8h4.8V68.5z M166.6,72.8h2.5v-5.3l-5.2,5l-1.3-1.4l6.5-6.3v-2.9h-7.1V60h12.4v-2.3H163v-1.9h11.3v-2.3H163v-1.9
		h13.2V60h1.7v1.9h-7v1.6l2.1,2.5l3.1-2.8l1.3,1.5l-3.1,2.8l3.4,4l-1.5,1.3l-5.3-6.2v8.3h-4.5V72.8z M165.5,66.8l-2-2l1.4-1.4l2,2
		L165.5,66.8z"/>
	<path class="st0" d="M181.5,57.1l3.2-3.8v-2.4h1.9v1.8h16v3L201,58h2v9.4h-17.5v5.3h16.1l1.4-3.4l1.8,0.7l-1.9,4.6h-19.3V58h15
		l2.2-3v-0.4h-14.6l-3.1,3.7L181.5,57.1z M201,65.5V60h-15.5v5.6H201z M194.1,64.5l-2.9-2.9l1.3-1.3l2.9,2.9L194.1,64.5z"/>
	<path class="st0" d="M215.7,74.7h-7.5v-1.9h7.5V74.7z M215.7,69.3h-7.4v-2.2l3.8-6h-3.8v-2.2l4.3-7.4l1.7,1l-3.9,6.7h3l1.2-1.9
		l1.6,1l-5.8,9.1h5.3V69.3z M217.1,52h13.1v3.3L226,58l5.7,3.6l-1,1.6l-6.4-4.1l-6.3,4.1l-1.1-1.6l11.4-7.3V54h-11.2V52z
		 M231.7,66.8h-6.3v6h6.6v1.9H217v-1.9h6.6v-6h-6.3v-1.9h14.5V66.8z"/>
	<path class="st0" d="M237.9,55.6l-2.6-2.6l1.4-1.3l2.6,2.6L237.9,55.6z M237.9,65l-2.6-2.6l1.4-1.4l2.6,2.6L237.9,65z M239.3,71.7
		l-2.6,2.6l-1.4-1.4l2.6-2.6L239.3,71.7z M240.9,63.5l6.4-2.9l-3.6-1.6v-3.5h-3v-1.9h8.1V51h1.9v2.7h8.1v1.9h-3v3.5l-3.7,1.6
		c2.2,0.9,4.3,1.9,6.4,2.8l-0.8,1.8l-8-3.6l-8,3.6L240.9,63.5z M246.3,65.3v6.6l-3.2,2.9l-1.3-1.5l2.6-2.3v-5.7H246.3z M253.9,57.8
		v-2.2h-8.3v2.2c1.3,0.6,2.7,1.2,4.1,1.8L253.9,57.8z M255.4,65.3v9.8h-1.9v-9.8H255.4z"/>
</g>
<g>
	<path class="st0" d="M127.9,100.3h-17.4v-1.4h3.6v-8.2h1.4v8.2h3.7V88.6h1.4v10.3h7.3V100.3z M127,90.6l-7.7-5l-7.8,5.5l-0.8-1.2
		l7.9-5.6v-1.2h1.4v1.1l7.8,5.1L127,90.6z M122.5,93.5l1.9-1.8l1,1l-1.8,1.8L122.5,93.5z"/>
	<path class="st0" d="M147.4,100.3h-17.5v-1.4h5.7V83.2h1.4v15.7h3.3V83.2h1.4v15.7h5.7V100.3z M131.9,86.3l2,9.8l-1.4,0.3l-2.1-9.8
		L131.9,86.3z M146.8,86.6l-2,9.8l-1.4-0.3l2-9.8L146.8,86.6z"/>
	<path class="st0" d="M154,83.3v3h5.3v6l-7.4,8.2l-1-1l4.5-4.9l-3.3-2.3l0.8-1.1l3.5,2.4l1.7-1.8v-4h-4.3l-2.8,3l-1-0.9l2.8-3v-3.5
		H154z M161.3,100.7V83.3h1.4v17.4H161.3z M165.3,92.7l-1.8-1.9l1-1l1.8,1.9L165.3,92.7z"/>
	<path class="st0" d="M179.2,91.8h-10v-1.4h10V91.8z M178.9,86.3h-9.4v-1.4h4v-1.7h1.4v1.7h4V86.3z M178.3,93.9v6.5H170v-6.5H178.3z
		 M171.9,89.7l-1.6-1.6l1-1l1.6,1.6L171.9,89.7z M171.4,95.3V99h5.5v-3.7H171.4z M175.5,88.7l1.6-1.6l1,1l-1.6,1.6L175.5,88.7z
		 M182.6,98.5l1.8-1.5v-4.7h-1.8V91l1.8-4v-1.4h-3.1v15.1H180V84.2h5.9v3.1l-1.6,3.5h1.6v6.7l-2.3,2L182.6,98.5z"/>
	<path class="st0" d="M205.4,87.7H200l1.3,5.3l2.3-3.4l1.1,0.8l-3,4.4l1,4h2.5v1.4h-3.6l-0.9-3.8l-2.5,3.7l-1.2-0.8l3.2-4.8
		l-1.7-6.9h-7.3v2.6h5.1V98h-3.6v-1.4h2.2v-4.9h-3.7v6.2l-1.6,2.6l-1.2-0.7l1.4-2.3V86.3h8.3l-0.7-2.7l1.4-0.3l0.7,3h5.7V87.7z
		 M203,86.3l-1.6-1.7l1-1l1.6,1.7L203,86.3z"/>
	<path class="st0" d="M215.7,100.7v-2.8h-4.6v-1.4h4.6v-8.7l-6.6,9.2l-1.1-0.8l6.1-8.5h-6.4v-1.4h8v-2.9h1.4v2.9h8v1.4h-6.4l6.1,8.5
		l-1.2,0.8l-6.5-9.1v8.7h4.6v1.4h-4.6v2.8H215.7z"/>
	<path class="st0" d="M244.5,86.8h-17.4v-1.4h8v-2.2h1.4v2.2h8V86.8z M231.8,87.9v2l4,3l4-3v-2h1.4V90l2.3,2.1l-1,1l-2.1-1.9
		l-3.5,2.6l7.3,5.4l-0.8,1.1l-7.7-5.7l-7.7,5.7l-0.8-1.1l7.3-5.4l-3.5-2.6l-2.1,1.9l-1-1l2.3-2.1v-2.1H231.8z"/>
	<path class="st0" d="M250.4,91.4v1.2h13.1v7.8h-4V99h2.6v-5h-1.6l-5.6,6.4l-1-0.9l4.8-5.5h-3.9l-5.6,6.4l-1-0.9L253,94h-3l-2.1,2
		l-1-1l2.1-2v-1.6H250.4z M249.1,90.9v-7.3h13.3v7.3H249.1z M261,89.5V85h-10.5v4.5H261z M255.4,85.8l1.8,1.9l-1,1l-1.8-1.9
		L255.4,85.8z"/>
	<path class="st0" d="M265.9,93.1h8v-8h-7.5v-1.4h16.5V85h-7.5v8h8v1.4h-8v6.3H274v-6.3h-8V93.1z M268.8,86.4l2.7,4.4l-1.2,0.7
		l-2.7-4.4L268.8,86.4z M281.7,87.1l-2.7,4.4l-1.2-0.7l2.7-4.4L281.7,87.1z"/>
	<path class="st0" d="M293,84.6l-5.2,4.4v1.1h12.5v-1l-1.9-1.8l1-1l2.3,2.2v3h-15.2v-3.2l5.7-4.9L293,84.6z M301.8,93.3v7h-15.4v-7
		H301.8z M287.8,94.7v4.2h12.6v-4.2H287.8z"/>
</g>
</svg>
